<svg width="346" height="101" viewBox="0 0 346 101" fill="none" xmlns="http://www.w3.org/2000/svg">
<g clip-path="url(#clip0_1380_672)">
<path d="M38.1449 64.5259L48.2562 56.3003C46.5605 54.1555 44.9509 51.9918 43.4343 49.7578C31.7389 32.7041 24.8096 15.3551 29.813 0.000976562H0V16.5718L38.1449 64.5259Z" fill="white"/>
<path d="M54.0891 39.746C54.7217 34.3333 56.35 24.1246 66.2008 16.5413C74.7304 9.99644 85.4046 8.73764 94.8577 12.7836V0.000976562H42.2285C38.7557 15.5543 47.8785 32.6456 54.0891 39.746Z" fill="white"/>
<path d="M66.8557 24.1473L66.8185 24.1737C56.9141 32.2844 59.3495 45.0132 68.57 56.4269C75.6714 65.2361 85.1733 71.42 94.8566 66.7318V29.1503C86.1572 20.1699 75.7156 16.8828 66.8557 24.1473Z" fill="white"/>
<path d="M0.000488281 36.1738V95.5887H0.0144446L28.7132 72.194L0.000488281 36.1738Z" fill="white"/>
<path d="M52.1958 61.0125C49.3767 63.3473 45.8946 66.2048 42.031 69.3858L45.7597 74.0647C51.1491 80.8581 59.0367 92.6281 68.8038 89.4423L69.1667 89.8898L62.2258 95.5884H94.8579V72.9861C78.0685 82.1798 63.633 73.8115 52.1958 61.0125Z" fill="white"/>
<path d="M36.4471 81.9065L32.5835 77.0635C24.6633 83.4701 16.35 90.1861 9.60217 95.5893H46.1142C43.7439 90.5189 39.4361 85.6618 36.4471 81.9065Z" fill="white"/>
<path d="M173.863 39.9322C182.604 38.3921 188.294 30.7854 188.294 21.0782C188.294 8.14327 177.185 0.00195312 158.172 0.00195312H120.543V0.442852C128.231 4.69048 128.054 11.547 128.054 18.0966V77.3567C128.054 84.0187 128.231 90.9457 120.543 95.1253V95.557H138.663C156.364 95.557 169.941 95.8613 180.074 91.0608C190.839 85.9623 197.361 76.8131 197.361 65.6573C197.361 51.419 186.849 42.6842 173.863 39.9322ZM142.81 8.81642L154.72 9.01339C163.552 9.01339 172.581 13.3711 172.581 23.3947C172.581 35.3053 164.589 38.4887 153.203 38.4887L142.81 38.5019V38.4887V8.81642ZM154.289 85.7372L142.81 85.7504V48.0754V47.541L155.152 47.4816C169.516 47.4816 181.372 52.8568 181.372 66.9498C181.372 80.7498 168.925 85.7372 154.289 85.7372Z" fill="white"/>
<path d="M226.209 77.3613C226.209 85.5143 226.063 91.302 233.704 95.8285V96.239H208.196V95.8285C215.828 91.302 215.695 85.5143 215.695 77.3613V19.2945C215.695 11.2025 215.828 4.78653 208.206 0.449876V0.00244141H229.38V0.145419C229.943 1.87772 230.88 2.85056 231.534 3.78824C232.213 4.69311 233.548 6.67857 233.548 6.67857L282.12 72.6523V18.7299C282.12 10.6004 282.246 4.78683 274.631 0.450178V0.00274305H299.984V0.450178C292.497 4.78683 292.497 10.6004 292.497 18.7299V101C287.866 99.1482 274.954 88.3136 265.759 75.8474C249.253 53.5077 226.209 22.4383 226.209 22.4383V77.3613Z" fill="white"/>
<path d="M323.635 17.3237C323.635 10.6452 323.521 4.69112 316.157 0.450537V0.000488281H346V0.450537C338.605 4.56216 338.54 10.7765 338.54 17.3237V78.4004C338.54 84.9266 338.368 91.5417 346 95.7964V96.2273H316.157V95.7964C323.833 91.4808 323.635 84.9829 323.635 78.4403V17.3237Z" fill="white"/>
</g>
<defs>
<clipPath id="clip0_1380_672">
<rect width="346" height="101" fill="white"/>
</clipPath>
</defs>
</svg>
